<mxfile host="app.diagrams.net" modified="2024-02-28T08:02:45.394Z" agent="Mozilla/5.0 (X11; Linux x86_64) AppleWebKit/537.36 (KHTML, like Gecko) Chrome/121.0.0.0 Safari/537.36" etag="_oXef4PVMuZuNSQUdQ70" version="23.1.6" type="google">
  <diagram name="Страница — 1" id="PVrl4Lllj85VKVrNrOla">
    <mxGraphModel grid="1" page="1" gridSize="10" guides="1" tooltips="1" connect="1" arrows="1" fold="1" pageScale="1" pageWidth="827" pageHeight="1169" math="0" shadow="0">
      <root>
        <mxCell id="0" />
        <mxCell id="1" parent="0" />
        <mxCell id="euOcV9dsWlcPkcapQykU-4" style="edgeStyle=orthogonalEdgeStyle;rounded=0;orthogonalLoop=1;jettySize=auto;html=1;" edge="1" parent="1" source="euOcV9dsWlcPkcapQykU-1" target="euOcV9dsWlcPkcapQykU-2">
          <mxGeometry relative="1" as="geometry">
            <mxPoint x="380" y="200" as="targetPoint" />
          </mxGeometry>
        </mxCell>
        <mxCell id="euOcV9dsWlcPkcapQykU-1" value="Data Access" style="shape=module;align=left;spacingLeft=20;align=center;verticalAlign=top;whiteSpace=wrap;html=1;" vertex="1" parent="1">
          <mxGeometry x="220" y="150" width="150" height="100" as="geometry" />
        </mxCell>
        <mxCell id="euOcV9dsWlcPkcapQykU-2" value="Business Logic" style="shape=module;align=left;spacingLeft=20;align=center;verticalAlign=top;whiteSpace=wrap;html=1;" vertex="1" parent="1">
          <mxGeometry x="480" y="150" width="150" height="100" as="geometry" />
        </mxCell>
        <mxCell id="euOcV9dsWlcPkcapQykU-5" style="edgeStyle=orthogonalEdgeStyle;rounded=0;orthogonalLoop=1;jettySize=auto;html=1;" edge="1" parent="1" source="euOcV9dsWlcPkcapQykU-3" target="euOcV9dsWlcPkcapQykU-2">
          <mxGeometry relative="1" as="geometry" />
        </mxCell>
        <mxCell id="euOcV9dsWlcPkcapQykU-3" value="UI" style="shape=module;align=left;spacingLeft=20;align=center;verticalAlign=top;whiteSpace=wrap;html=1;" vertex="1" parent="1">
          <mxGeometry x="760" y="150" width="150" height="100" as="geometry" />
        </mxCell>
      </root>
    </mxGraphModel>
  </diagram>
</mxfile>
